HIERARCHY
ROOT Hips
{
	OFFSET -0.001795 -0.223333 0.028219
	CHANNELS 6 Xposition Yposition Zposition Zrotation Yrotation Xrotation 
	JOINT LeftUpLeg
	{
		OFFSET 0.069520 -0.091406 -0.006815
		CHANNELS 3 Zrotation Yrotation Xrotation
		JOINT LeftLeg
		{
			OFFSET 0.034277 -0.375199 -0.004496
			CHANNELS 3 Zrotation Yrotation Xrotation
			JOINT LeftFoot
			{
				OFFSET -0.013596 -0.397961 -0.043693
				CHANNELS 3 Zrotation Yrotation Xrotation
				JOINT LeftToe
				{
					OFFSET 0.026358 -0.055791 0.119288
					CHANNELS 3 Zrotation Yrotation Xrotation
					End Site
					{
						OFFSET 0.000000 0.000000 0.000000
					}
				}
			}
		}
	}
	JOINT RightUpLeg
	{
		OFFSET -0.067670 -0.090522 -0.004320
		CHANNELS 3 Zrotation Yrotation Xrotation
		JOINT RightLeg
		{
			OFFSET -0.038290 -0.382569 -0.008850
			CHANNELS 3 Zrotation Yrotation Xrotation
			JOINT RightFoot
			{
				OFFSET 0.015774 -0.398415 -0.042312
				CHANNELS 3 Zrotation Yrotation Xrotation
				JOINT RightToe
				{
					OFFSET -0.025372 -0.048144 0.123348
					CHANNELS 3 Zrotation Yrotation Xrotation
					End Site
					{
						OFFSET 0.000000 0.000000 0.000000
					}
				}
			}
		}
	}
	JOINT Spine
	{
		OFFSET -0.002533 0.108963 -0.026696
		CHANNELS 3 Zrotation Yrotation Xrotation
		JOINT Spine1
		{
			OFFSET 0.005487 0.135180 0.001092
			CHANNELS 3 Zrotation Yrotation Xrotation
			JOINT Spine2
			{
				OFFSET 0.001457 0.052922 0.025425
				CHANNELS 3 Zrotation Yrotation Xrotation
				JOINT Neck
				{
					OFFSET -0.002778 0.213870 -0.042857
					CHANNELS 3 Zrotation Yrotation Xrotation
					JOINT Head
					{
						OFFSET 0.005152 0.064970 0.051349
						CHANNELS 3 Zrotation Yrotation Xrotation
						End Site
						{
							OFFSET 0.000000 0.000000 0.000000
						}
					}
				}
				JOINT LeftShoulder
				{
					OFFSET 0.078845 0.121749 -0.034090
					CHANNELS 3 Zrotation Yrotation Xrotation
					JOINT LeftArm
					{
						OFFSET 0.090977 0.030469 -0.008868
						CHANNELS 3 Zrotation Yrotation Xrotation
						JOINT LeftForeArm
						{
							OFFSET 0.259612 -0.012772 -0.027456
							CHANNELS 3 Zrotation Yrotation Xrotation
							JOINT LeftHand
							{
								OFFSET 0.249234 0.008986 -0.001171
								CHANNELS 3 Zrotation Yrotation Xrotation
								End Site
								{
									OFFSET 0.000000 0.000000 0.000000
								}
							}
						}
					}
				}
				JOINT RightShoulder
				{
					OFFSET -0.081759 0.118833 -0.038615
					CHANNELS 3 Zrotation Yrotation Xrotation
					JOINT RightArm
					{
						OFFSET -0.096012 0.032551 -0.009143
						CHANNELS 3 Zrotation Yrotation Xrotation
						JOINT RightForeArm
						{
							OFFSET -0.253742 -0.013329 -0.021401
							CHANNELS 3 Zrotation Yrotation Xrotation
							JOINT RightHand
							{
								OFFSET -0.255298 0.007772 -0.005559
								CHANNELS 3 Zrotation Yrotation Xrotation
								End Site
								{
									OFFSET 0.000000 0.000000 0.000000
								}
							}
						}
					}
				}
			}
		}
	}
}
MOTION
Frames: 8
Frame Time: 0.050000
-0.463986 0.934059 0.969119 179.236646 -49.215490 177.781330 10.107877 9.137113 8.851515 -3.396331 2.770055 -7.494414 -1.490604 2.507581 26.871486 0.000000 0.000000 0.000000 -3.565361 7.589028 9.462285 4.391757 4.746485 -6.837976 -32.778507 -7.053026 23.836975 0.000000 0.000000 0.000000 -4.514411 0.848425 4.792683 3.223499 0.913174 -26.903831 -1.350740 -1.512862 35.703216 -0.499422 -2.303607 -24.442792 0.000000 0.000000 0.000000 13.729792 9.314434 -3.059354 2.351264 -35.510335 4.662963 100.157359 6.896097 61.977187 0.000000 0.000000 0.000000 -8.768673 -8.991232 -25.120109 32.082051 -23.143303 -15.779735 140.781317 60.985831 75.812610 0.000000 0.000000 0.000000 
-0.464113 0.934085 0.969914 179.182709 -49.521190 177.885909 10.108797 9.090608 8.813563 -3.563211 2.814670 -7.699039 -1.626801 2.325043 26.890499 0.000000 0.000000 0.000000 -3.536282 7.395432 9.196480 4.227302 4.532494 -6.422535 -32.860496 -7.043562 23.730378 0.000000 0.000000 0.000000 -4.179467 0.778856 5.010654 2.524592 0.750778 -27.038413 -1.603908 -1.425849 35.873658 -0.043254 -2.117129 -23.733650 0.000000 0.000000 0.000000 13.827177 9.155545 -3.048441 3.220408 -35.261885 4.448893 100.859362 7.373898 62.999734 0.000000 0.000000 0.000000 -8.542291 -9.391658 -25.676336 29.871702 -22.617428 -14.186766 142.127383 59.991916 76.122019 0.000000 0.000000 0.000000 
-0.464121 0.934171 0.970739 179.539584 -49.755000 177.733621 10.268648 9.115259 8.637520 -3.490785 2.749223 -7.792987 -1.701423 2.256200 26.797218 0.000000 0.000000 0.000000 -3.427288 7.210423 8.993590 4.389234 4.576491 -6.327184 -32.735212 -7.150441 23.832233 0.000000 0.000000 0.000000 -3.866489 0.686354 4.849031 2.191462 0.654989 -26.974650 -1.768416 -1.254094 35.918292 0.197895 -2.298232 -24.004890 0.000000 0.000000 0.000000 14.111422 8.683918 -2.909563 3.345021 -34.965102 4.389563 101.414679 7.041672 63.084281 0.000000 0.000000 0.000000 -8.417948 -9.618468 -25.861028 28.458448 -22.572676 -13.311900 136.571375 59.709575 68.196048 0.000000 0.000000 0.000000 
-0.464212 0.934144 0.971495 179.886860 -49.622673 177.529760 10.352814 9.137226 8.328932 -3.293531 2.697104 -7.391323 -1.616876 2.451119 26.546119 0.000000 0.000000 0.000000 -3.225654 7.143178 9.022426 4.303226 4.647300 -6.585058 -32.502860 -7.072401 23.853550 0.000000 0.000000 0.000000 -3.700476 0.650807 4.865095 1.989575 0.590411 -26.856359 -1.661417 -1.200899 35.911268 -0.312187 -2.140610 -23.636843 0.000000 0.000000 0.000000 13.447656 8.633963 -2.422351 4.864368 -34.925636 3.983626 101.580114 7.738012 63.059010 0.000000 0.000000 0.000000 -8.087458 -9.801757 -26.600253 27.331991 -23.320252 -12.892152 128.767749 56.602886 54.473242 0.000000 0.000000 0.000000 
-0.464538 0.934296 0.972208 -179.825865 -50.002120 177.206923 10.646916 9.274141 8.490853 -3.444405 2.710970 -7.626077 -1.923387 2.181828 26.502729 0.000000 0.000000 0.000000 -3.052071 7.065371 9.128836 4.363607 4.616974 -6.512332 -32.450454 -7.290653 24.067093 0.000000 0.000000 0.000000 -3.609092 0.647597 5.057767 1.990779 0.560074 -26.705294 -1.874482 -1.523644 35.852548 -0.400709 -2.243162 -23.837332 0.000000 0.000000 0.000000 13.506810 8.417922 -2.289796 5.321509 -33.856592 3.602745 101.924111 7.744073 63.460756 0.000000 0.000000 0.000000 -7.711677 -9.961975 -27.289832 26.651790 -24.340511 -12.801605 119.456552 52.975269 39.853438 0.000000 0.000000 0.000000 
-0.465192 0.934426 0.972974 -179.479791 -50.080996 177.069380 10.893657 9.421011 8.634489 -3.587929 2.716436 -8.136308 -2.035814 2.035204 26.545954 0.000000 0.000000 0.000000 -3.085572 7.080575 9.174582 4.694762 4.883081 -6.893173 -32.253047 -7.494492 24.422033 0.000000 0.000000 0.000000 -3.649245 0.636293 4.870702 2.101529 0.520705 -26.355612 -1.763201 -1.905503 35.676913 -1.005045 -2.261956 -24.045296 0.000000 0.000000 0.000000 12.742097 8.367378 -1.720465 7.089624 -33.863863 3.187415 101.733770 8.731699 63.302646 0.000000 0.000000 0.000000 -7.072585 -9.658003 -28.037902 26.158003 -25.922229 -12.941023 113.049542 48.274017 28.256553 0.000000 0.000000 0.000000 
-0.466129 0.934773 0.973812 -179.339044 -49.935366 176.990661 10.823212 9.391858 8.625146 -3.461152 2.666097 -8.119836 -1.904851 2.151932 26.556498 0.000000 0.000000 0.000000 -3.092100 7.155211 9.275943 4.690528 4.977231 -7.161790 -31.993661 -7.465753 24.601370 0.000000 0.000000 0.000000 -3.646486 0.635343 4.843816 2.453359 0.585321 -26.216583 -1.869096 -2.026227 35.583018 -1.286838 -2.171510 -23.943593 0.000000 0.000000 0.000000 12.592047 8.283530 -1.413117 7.839500 -33.339459 2.902528 102.124593 9.301954 64.257498 0.000000 0.000000 0.000000 -6.575671 -9.444845 -29.002983 25.646531 -27.877580 -13.264793 107.255795 42.812140 17.477782 0.000000 0.000000 0.000000 
-0.467196 0.934912 0.974749 -179.352741 -49.746778 177.111478 10.637404 9.273677 8.379986 -3.384834 2.670405 -7.813270 -1.704956 2.332686 26.459761 0.000000 0.000000 0.000000 -3.479515 7.508168 9.530907 5.136709 5.443617 -7.956566 -31.867091 -7.707342 25.179053 0.000000 0.000000 0.000000 -3.674604 0.617887 4.620062 2.649586 0.595623 -26.012612 -1.665885 -2.120964 35.578034 -1.559343 -2.233675 -24.276636 0.000000 0.000000 0.000000 12.104965 8.108305 -0.849933 8.656477 -33.450217 2.718661 102.959475 9.947145 65.110060 0.000000 0.000000 0.000000 -6.171755 -9.313768 -29.635655 26.175881 -29.622737 -14.160971 102.800869 38.068176 9.828515 0.000000 0.000000 0.000000 
